<?xml version="1.0" standalone="no"?>
<!DOCTYPE svg PUBLIC "-//W3C//DTD SVG 20010904//EN"
 "http://www.w3.org/TR/2001/REC-SVG-20010904/DTD/svg10.dtd">
<svg version="1.0" xmlns="http://www.w3.org/2000/svg"
 width="860.000000pt" height="860.000000pt" viewBox="0 0 860.000000 860.000000"
 preserveAspectRatio="xMidYMid meet">
<metadata>
Created by potrace 1.14, written by Peter Selinger 2001-2017
</metadata>
<g transform="translate(0.000000,860.000000) scale(0.100000,-0.100000)"
fill="#000000" stroke="none">
<path d="M4379 8548 c-121 -166 -284 -639 -385 -1118 -32 -152 -28 -135 -49
-245 -9 -49 -20 -106 -26 -126 -5 -20 -9 -46 -9 -58 0 -11 -4 -21 -10 -21 -5
0 -10 7 -10 15 0 8 -4 23 -9 33 -5 9 -37 87 -72 172 -123 305 -236 524 -381
740 -32 47 -69 98 -82 115 -24 29 -24 29 -21 5 2 -14 5 -37 8 -51 19 -100 26
-390 14 -539 -8 -94 -14 -133 -42 -265 -16 -79 -60 -246 -72 -275 -3 -8 -7
-19 -8 -25 -2 -5 -12 -42 -23 -80 -12 -39 -23 -79 -25 -90 -2 -11 -7 -27 -10
-35 -17 -43 -35 -186 -34 -268 l2 -92 -272 0 -273 0 0 -185 0 -185 209 0 c228
0 215 4 228 -60 7 -33 9 -42 16 -60 3 -8 13 -46 21 -85 18 -77 18 -80 36 -145
7 -25 14 -52 16 -60 2 -8 8 -32 13 -52 5 -21 6 -38 3 -38 -3 0 -1 -5 6 -12 7
-7 12 -23 12 -36 0 -13 4 -31 9 -41 5 -9 11 -30 14 -46 2 -17 6 -37 10 -45 3
-8 8 -26 10 -40 3 -14 13 -54 22 -90 10 -36 18 -72 19 -80 1 -9 5 -20 8 -25 5
-10 21 -79 23 -100 0 -5 4 -16 9 -23 4 -7 5 -16 2 -19 -3 -3 -1 -11 4 -18 17
-20 17 -80 0 -81 -8 -1 -17 -3 -20 -4 -8 -3 -44 -10 -65 -13 -12 -2 -25 -6
-30 -9 -6 -3 -23 -9 -40 -13 -16 -5 -32 -9 -35 -10 -49 -17 -205 -89 -208 -97
-2 -5 -8 -8 -14 -8 -6 0 -33 -16 -59 -35 -27 -19 -52 -35 -55 -35 -3 0 -11 -6
-18 -12 -7 -7 -28 -24 -46 -38 -45 -34 -154 -143 -188 -188 -15 -21 -29 -39
-33 -42 -36 -31 -179 -298 -179 -334 0 -9 -5 -16 -12 -16 -6 0 -9 -3 -5 -6 3
-3 -1 -23 -8 -45 -8 -21 -13 -39 -11 -39 2 0 -2 -21 -10 -46 -7 -26 -11 -50
-8 -55 3 -5 1 -9 -3 -9 -10 0 -12 -30 -17 -215 -3 -97 -1 -144 7 -154 9 -12 9
-13 -1 -7 -10 6 -11 0 -6 -26 3 -18 7 -55 9 -83 2 -27 4 -50 5 -50 1 0 3 -18
5 -40 5 -44 7 -61 25 -150 6 -33 13 -71 16 -85 4 -21 24 -97 41 -150 2 -8 5
-17 5 -20 1 -3 12 -34 25 -70 13 -36 26 -69 27 -75 8 -30 74 -178 98 -223 10
-18 18 -39 18 -47 0 -8 5 -15 10 -15 6 0 10 -9 10 -20 0 -11 3 -20 8 -20 4 0
23 -30 42 -67 19 -38 43 -77 52 -87 10 -11 18 -23 18 -27 0 -11 61 -102 74
-111 6 -4 7 -8 3 -8 -8 0 4 -17 53 -77 6 -7 10 -15 10 -17 0 -6 24 -37 48 -62
7 -8 10 -14 5 -14 -4 -1 3 -10 16 -20 13 -11 20 -20 17 -20 -4 0 -2 -6 4 -12
44 -52 61 -76 77 -105 10 -18 21 -33 25 -33 5 0 8 -150 8 -332 l0 -333 -57
-115 c-31 -63 -61 -117 -65 -118 -4 -2 -8 -9 -8 -15 0 -15 -82 -180 -93 -188
-5 -3 -8 -9 -8 -13 1 -3 -15 -39 -36 -79 -20 -39 -38 -78 -39 -86 -2 -8 -6
-17 -11 -20 -11 -8 -97 -184 -95 -193 1 -5 -2 -8 -7 -8 -5 0 -12 -13 -16 -30
-4 -16 -10 -30 -13 -30 -7 0 -42 -73 -42 -85 0 -3 821 -5 1825 -5 l1825 0 -37
73 c-21 39 -41 74 -45 75 -5 2 -5 8 -2 13 3 6 -1 18 -8 27 -8 9 -66 120 -128
245 -63 126 -117 230 -122 233 -4 3 -8 12 -8 21 0 9 -13 38 -30 65 -16 26 -30
55 -30 63 0 8 -5 15 -10 15 -6 0 -9 3 -8 8 1 4 -11 32 -27 62 -16 30 -29 58
-30 62 0 3 -3 10 -7 14 -5 4 -8 156 -8 337 0 281 2 333 15 346 8 9 42 54 75
101 32 47 68 96 79 110 12 14 21 29 21 33 0 5 6 15 13 22 21 25 32 39 68 95
75 115 109 171 109 178 0 5 9 18 20 30 12 12 19 22 16 22 -3 0 11 27 30 61 18
33 34 65 34 70 0 5 5 9 11 9 5 0 8 4 4 9 -3 5 -1 12 5 16 6 4 8 10 5 15 -3 4
2 13 10 20 8 7 15 18 15 25 0 7 16 47 35 90 20 42 37 84 39 94 1 9 9 30 16 46
7 17 14 37 16 45 1 8 14 52 27 98 14 45 25 85 26 87 0 3 1 6 2 8 4 13 11 48
14 72 2 17 4 30 5 30 1 0 3 9 5 20 2 11 7 36 11 55 7 37 9 50 20 145 9 82 8
420 -1 475 -4 25 -8 55 -9 68 0 12 -4 22 -7 22 -4 0 -9 12 -12 28 -10 53 -17
77 -38 132 -37 95 -91 201 -119 235 -7 8 -10 15 -6 15 3 0 -2 9 -11 19 -29 32
-43 50 -43 55 0 31 -295 306 -328 306 -6 0 -15 6 -19 13 -4 8 -32 24 -60 37
-29 13 -53 27 -53 32 0 4 -3 7 -7 6 -5 -1 -30 8 -56 20 -27 12 -55 22 -62 22
-8 0 -16 4 -19 9 -3 5 -16 11 -28 14 -13 3 -41 11 -63 17 -60 16 -78 21 -105
26 -32 7 -31 4 -19 48 11 41 13 46 29 116 6 25 13 52 17 60 3 8 8 24 10 35 2
11 13 56 24 100 11 44 23 88 25 98 8 33 12 52 30 127 10 41 17 78 16 83 -1 4
2 7 7 7 6 0 8 9 6 20 -2 11 0 22 5 25 4 3 11 28 15 55 4 28 11 50 17 50 5 0 7
4 4 8 -3 5 7 51 20 103 14 52 25 104 25 117 0 12 4 22 10 22 5 0 9 6 7 13 -1
6 1 24 5 40 l7 27 210 0 210 0 0 185 0 185 -350 0 c-326 0 -350 1 -351 18 0
17 -2 35 -14 122 -8 62 -23 100 -104 283 -39 87 -74 170 -77 185 -4 15 -10 32
-15 37 -4 6 -10 22 -13 35 -3 14 -10 41 -16 60 -6 19 -13 51 -16 70 -3 19 -9
51 -13 70 -11 49 -11 223 -1 285 14 85 17 98 40 165 38 111 114 257 176 334
13 17 28 36 32 41 26 37 112 134 135 153 42 37 32 43 -20 14 -60 -33 -249
-160 -294 -198 -132 -110 -294 -297 -387 -447 -48 -76 -132 -240 -132 -256 0
-54 -49 72 -99 254 -42 154 -74 315 -86 425 -2 19 -7 60 -10 90 -13 124 -6
384 14 471 5 22 7 39 5 39 -2 0 -18 -19 -35 -42z"/>
</g>
</svg>
